<mxfile host="app.diagrams.net" modified="2022-05-04T21:02:02.342Z" agent="5.0 (Windows NT 10.0; Win64; x64) AppleWebKit/537.36 (KHTML, like Gecko) Chrome/100.0.4896.127 Safari/537.36" etag="ycBrubfrXwe8H-loCCtA" version="16.6.1" type="github">
  <diagram id="J93P0dknWouo2h-GwdAa" name="Page-1">
    <mxGraphModel dx="345" dy="665" grid="1" gridSize="10" guides="1" tooltips="1" connect="1" arrows="1" fold="1" page="1" pageScale="1" pageWidth="827" pageHeight="1169" math="0" shadow="0">
      <root>
        <mxCell id="0" />
        <mxCell id="1" parent="0" />
        <mxCell id="jm0wsWvHRC7rD9zgn_kI-3" value="&lt;font style=&quot;font-size: 24px&quot;&gt;&lt;span class=&quot;pl-k&quot; style=&quot;box-sizing: border-box ; font-family: , , &amp;#34;sf mono&amp;#34; , &amp;#34;menlo&amp;#34; , &amp;#34;consolas&amp;#34; , &amp;#34;liberation mono&amp;#34; , monospace ; background-color: rgb(255 , 255 , 255)&quot;&gt;class&lt;/span&gt;&lt;span style=&quot;color: rgb(36 , 41 , 47) ; font-family: , , &amp;#34;sf mono&amp;#34; , &amp;#34;menlo&amp;#34; , &amp;#34;consolas&amp;#34; , &amp;#34;liberation mono&amp;#34; , monospace ; background-color: rgb(255 , 255 , 255)&quot;&gt; &lt;/span&gt;&lt;span class=&quot;pl-en&quot; style=&quot;box-sizing: border-box ; font-family: , , &amp;#34;sf mono&amp;#34; , &amp;#34;menlo&amp;#34; , &amp;#34;consolas&amp;#34; , &amp;#34;liberation mono&amp;#34; , monospace ; background-color: rgb(255 , 255 , 255)&quot;&gt;&lt;span class=&quot;pl-token&quot; style=&quot;box-sizing: border-box&quot;&gt;Program&lt;/span&gt;&lt;/span&gt;&lt;/font&gt;" style="text;html=1;align=center;verticalAlign=middle;resizable=0;points=[];autosize=1;strokeColor=none;fillColor=none;" parent="1" vertex="1">
          <mxGeometry x="10" y="10" width="170" height="20" as="geometry" />
        </mxCell>
        <mxCell id="jm0wsWvHRC7rD9zgn_kI-6" value="" style="endArrow=none;html=1;rounded=0;" parent="1" edge="1">
          <mxGeometry width="50" height="50" relative="1" as="geometry">
            <mxPoint y="40" as="sourcePoint" />
            <mxPoint x="200" y="40" as="targetPoint" />
          </mxGeometry>
        </mxCell>
        <mxCell id="jm0wsWvHRC7rD9zgn_kI-7" value="" style="endArrow=none;html=1;rounded=0;" parent="1" edge="1">
          <mxGeometry width="50" height="50" relative="1" as="geometry">
            <mxPoint x="200" as="sourcePoint" />
            <mxPoint x="200" y="40" as="targetPoint" />
          </mxGeometry>
        </mxCell>
        <mxCell id="jm0wsWvHRC7rD9zgn_kI-8" value="&lt;span class=&quot;pl-k&quot; style=&quot;box-sizing: border-box ; font-family: , , &amp;#34;sf mono&amp;#34; , &amp;#34;menlo&amp;#34; , &amp;#34;consolas&amp;#34; , &amp;#34;liberation mono&amp;#34; , monospace ; font-size: 12px ; background-color: rgb(255 , 255 , 255)&quot;&gt;static&lt;/span&gt;&lt;span style=&quot;color: rgb(36 , 41 , 47) ; font-family: , , &amp;#34;sf mono&amp;#34; , &amp;#34;menlo&amp;#34; , &amp;#34;consolas&amp;#34; , &amp;#34;liberation mono&amp;#34; , monospace ; font-size: 12px ; background-color: rgb(255 , 255 , 255)&quot;&gt; &lt;/span&gt;&lt;span class=&quot;pl-k&quot; style=&quot;box-sizing: border-box ; font-family: , , &amp;#34;sf mono&amp;#34; , &amp;#34;menlo&amp;#34; , &amp;#34;consolas&amp;#34; , &amp;#34;liberation mono&amp;#34; , monospace ; font-size: 12px ; background-color: rgb(255 , 255 , 255)&quot;&gt;void&lt;/span&gt;&lt;span style=&quot;color: rgb(36 , 41 , 47) ; font-family: , , &amp;#34;sf mono&amp;#34; , &amp;#34;menlo&amp;#34; , &amp;#34;consolas&amp;#34; , &amp;#34;liberation mono&amp;#34; , monospace ; font-size: 12px ; background-color: rgb(255 , 255 , 255)&quot;&gt; &lt;/span&gt;&lt;span class=&quot;pl-en&quot; style=&quot;box-sizing: border-box ; font-family: , , &amp;#34;sf mono&amp;#34; , &amp;#34;menlo&amp;#34; , &amp;#34;consolas&amp;#34; , &amp;#34;liberation mono&amp;#34; , monospace ; font-size: 12px ; background-color: rgb(255 , 255 , 255)&quot;&gt;&lt;span class=&quot;pl-token&quot; style=&quot;box-sizing: border-box&quot;&gt;Main&lt;/span&gt;&lt;/span&gt;&lt;span style=&quot;color: rgb(36 , 41 , 47) ; font-family: , , &amp;#34;sf mono&amp;#34; , &amp;#34;menlo&amp;#34; , &amp;#34;consolas&amp;#34; , &amp;#34;liberation mono&amp;#34; , monospace ; font-size: 12px ; background-color: rgb(255 , 255 , 255)&quot;&gt;(&lt;/span&gt;&lt;span class=&quot;pl-k&quot; style=&quot;box-sizing: border-box ; font-family: , , &amp;#34;sf mono&amp;#34; , &amp;#34;menlo&amp;#34; , &amp;#34;consolas&amp;#34; , &amp;#34;liberation mono&amp;#34; , monospace ; font-size: 12px ; background-color: rgb(255 , 255 , 255)&quot;&gt;string&lt;/span&gt;&lt;span style=&quot;color: rgb(36 , 41 , 47) ; font-family: , , &amp;#34;sf mono&amp;#34; , &amp;#34;menlo&amp;#34; , &amp;#34;consolas&amp;#34; , &amp;#34;liberation mono&amp;#34; , monospace ; font-size: 12px ; background-color: rgb(255 , 255 , 255)&quot;&gt;[] &lt;/span&gt;&lt;span class=&quot;pl-en&quot; style=&quot;box-sizing: border-box ; font-family: , , &amp;#34;sf mono&amp;#34; , &amp;#34;menlo&amp;#34; , &amp;#34;consolas&amp;#34; , &amp;#34;liberation mono&amp;#34; , monospace ; font-size: 12px ; background-color: rgb(255 , 255 , 255)&quot;&gt;args&lt;/span&gt;&lt;span style=&quot;color: rgb(36 , 41 , 47) ; font-family: , , &amp;#34;sf mono&amp;#34; , &amp;#34;menlo&amp;#34; , &amp;#34;consolas&amp;#34; , &amp;#34;liberation mono&amp;#34; , monospace ; font-size: 12px ; background-color: rgb(255 , 255 , 255)&quot;&gt;)&lt;/span&gt;" style="text;html=1;align=center;verticalAlign=middle;resizable=0;points=[];autosize=1;strokeColor=none;fillColor=none;fontSize=24;" parent="1" vertex="1">
          <mxGeometry x="30" y="60" width="170" height="40" as="geometry" />
        </mxCell>
        <mxCell id="jm0wsWvHRC7rD9zgn_kI-11" style="edgeStyle=orthogonalEdgeStyle;rounded=0;orthogonalLoop=1;jettySize=auto;html=1;exitX=0.5;exitY=1;exitDx=0;exitDy=0;fontSize=24;" parent="1" source="jm0wsWvHRC7rD9zgn_kI-10" target="jm0wsWvHRC7rD9zgn_kI-12" edge="1">
          <mxGeometry relative="1" as="geometry">
            <mxPoint x="115.35294117647061" y="210" as="targetPoint" />
          </mxGeometry>
        </mxCell>
        <mxCell id="jm0wsWvHRC7rD9zgn_kI-10" value="Початок" style="ellipse;whiteSpace=wrap;html=1;fontSize=16;strokeWidth=1;" parent="1" vertex="1">
          <mxGeometry x="72.50000000000023" y="129.9999999999999" width="85" height="40" as="geometry" />
        </mxCell>
        <mxCell id="jm0wsWvHRC7rD9zgn_kI-14" style="edgeStyle=orthogonalEdgeStyle;rounded=0;orthogonalLoop=1;jettySize=auto;html=1;exitX=0.5;exitY=1;exitDx=0;exitDy=0;fontSize=24;endArrow=none;endFill=0;" parent="1" source="jm0wsWvHRC7rD9zgn_kI-12" target="jm0wsWvHRC7rD9zgn_kI-18" edge="1">
          <mxGeometry relative="1" as="geometry">
            <mxPoint x="115" y="290" as="targetPoint" />
          </mxGeometry>
        </mxCell>
        <mxCell id="jm0wsWvHRC7rD9zgn_kI-12" value="&lt;span class=&quot;pl-en&quot; style=&quot;box-sizing: border-box ; font-family: , , &amp;#34;sf mono&amp;#34; , &amp;#34;menlo&amp;#34; , &amp;#34;consolas&amp;#34; , &amp;#34;liberation mono&amp;#34; , monospace ; font-size: 12px ; background-color: rgb(255 , 255 , 255)&quot;&gt;Random&lt;/span&gt;&lt;span style=&quot;color: rgb(36 , 41 , 47) ; font-family: , , &amp;#34;sf mono&amp;#34; , &amp;#34;menlo&amp;#34; , &amp;#34;consolas&amp;#34; , &amp;#34;liberation mono&amp;#34; , monospace ; font-size: 12px ; background-color: rgb(255 , 255 , 255)&quot;&gt; &lt;/span&gt;&lt;span class=&quot;pl-en&quot; style=&quot;box-sizing: border-box ; font-family: , , &amp;#34;sf mono&amp;#34; , &amp;#34;menlo&amp;#34; , &amp;#34;consolas&amp;#34; , &amp;#34;liberation mono&amp;#34; , monospace ; font-size: 12px ; background-color: rgb(255 , 255 , 255)&quot;&gt;random&lt;/span&gt;&lt;span style=&quot;color: rgb(36 , 41 , 47) ; font-family: , , &amp;#34;sf mono&amp;#34; , &amp;#34;menlo&amp;#34; , &amp;#34;consolas&amp;#34; , &amp;#34;liberation mono&amp;#34; , monospace ; font-size: 12px ; background-color: rgb(255 , 255 , 255)&quot;&gt; &lt;/span&gt;&lt;span class=&quot;pl-k&quot; style=&quot;box-sizing: border-box ; font-family: , , &amp;#34;sf mono&amp;#34; , &amp;#34;menlo&amp;#34; , &amp;#34;consolas&amp;#34; , &amp;#34;liberation mono&amp;#34; , monospace ; font-size: 12px ; background-color: rgb(255 , 255 , 255)&quot;&gt;=&lt;/span&gt;&lt;span style=&quot;color: rgb(36 , 41 , 47) ; font-family: , , &amp;#34;sf mono&amp;#34; , &amp;#34;menlo&amp;#34; , &amp;#34;consolas&amp;#34; , &amp;#34;liberation mono&amp;#34; , monospace ; font-size: 12px ; background-color: rgb(255 , 255 , 255)&quot;&gt; &lt;/span&gt;&lt;span class=&quot;pl-k&quot; style=&quot;box-sizing: border-box ; font-family: , , &amp;#34;sf mono&amp;#34; , &amp;#34;menlo&amp;#34; , &amp;#34;consolas&amp;#34; , &amp;#34;liberation mono&amp;#34; , monospace ; font-size: 12px ; background-color: rgb(255 , 255 , 255)&quot;&gt;new&lt;/span&gt;&lt;span style=&quot;color: rgb(36 , 41 , 47) ; font-family: , , &amp;#34;sf mono&amp;#34; , &amp;#34;menlo&amp;#34; , &amp;#34;consolas&amp;#34; , &amp;#34;liberation mono&amp;#34; , monospace ; font-size: 12px ; background-color: rgb(255 , 255 , 255)&quot;&gt; &lt;/span&gt;&lt;span class=&quot;pl-en&quot; style=&quot;box-sizing: border-box ; font-family: , , &amp;#34;sf mono&amp;#34; , &amp;#34;menlo&amp;#34; , &amp;#34;consolas&amp;#34; , &amp;#34;liberation mono&amp;#34; , monospace ; font-size: 12px ; background-color: rgb(255 , 255 , 255)&quot;&gt;Random&lt;/span&gt;&lt;span style=&quot;color: rgb(36 , 41 , 47) ; font-family: , , &amp;#34;sf mono&amp;#34; , &amp;#34;menlo&amp;#34; , &amp;#34;consolas&amp;#34; , &amp;#34;liberation mono&amp;#34; , monospace ; font-size: 12px ; background-color: rgb(255 , 255 , 255)&quot;&gt;();&lt;br&gt;Int M, N&lt;br&gt;&lt;/span&gt;" style="shape=parallelogram;perimeter=parallelogramPerimeter;whiteSpace=wrap;html=1;fixedSize=1;fontSize=24;perimeterSpacing=0;sketch=0;rounded=1;" parent="1" vertex="1">
          <mxGeometry x="7.5" y="200" width="215" height="60" as="geometry" />
        </mxCell>
        <mxCell id="jm0wsWvHRC7rD9zgn_kI-19" style="edgeStyle=orthogonalEdgeStyle;rounded=0;orthogonalLoop=1;jettySize=auto;html=1;exitX=0.5;exitY=1;exitDx=0;exitDy=0;fontSize=12;endArrow=none;endFill=0;" parent="1" source="jm0wsWvHRC7rD9zgn_kI-18" target="jm0wsWvHRC7rD9zgn_kI-20" edge="1">
          <mxGeometry relative="1" as="geometry">
            <mxPoint x="115.35294117647061" y="410" as="targetPoint" />
          </mxGeometry>
        </mxCell>
        <mxCell id="jm0wsWvHRC7rD9zgn_kI-18" value="&lt;font style=&quot;font-size: 12px&quot;&gt;M =&lt;/font&gt;&lt;font style=&quot;font-size: 12px&quot;&gt; Int32.Parse(ReadLine());&lt;br&gt;N = Int32.Parse(ReadLine());&lt;/font&gt;" style="rounded=1;whiteSpace=wrap;html=1;sketch=0;fontSize=24;" parent="1" vertex="1">
          <mxGeometry x="15" y="300" width="200" height="70" as="geometry" />
        </mxCell>
        <mxCell id="jm0wsWvHRC7rD9zgn_kI-21" style="edgeStyle=orthogonalEdgeStyle;rounded=0;orthogonalLoop=1;jettySize=auto;html=1;exitX=0.5;exitY=1;exitDx=0;exitDy=0;fontSize=12;" parent="1" source="jm0wsWvHRC7rD9zgn_kI-20" target="jm0wsWvHRC7rD9zgn_kI-22" edge="1">
          <mxGeometry relative="1" as="geometry">
            <mxPoint x="115.35294117647061" y="500" as="targetPoint" />
          </mxGeometry>
        </mxCell>
        <mxCell id="jm0wsWvHRC7rD9zgn_kI-20" value="&lt;div&gt;matrix.print();&lt;span&gt;&amp;nbsp;&lt;/span&gt;&lt;/div&gt;&lt;div&gt;&lt;span&gt;matrix.sort();&lt;/span&gt;&lt;/div&gt;&lt;div&gt;matrix.print();&lt;br&gt;&lt;/div&gt;" style="shape=process;whiteSpace=wrap;html=1;backgroundOutline=1;rounded=1;sketch=0;fontSize=12;" parent="1" vertex="1">
          <mxGeometry x="55.35294117647061" y="400" width="120" height="60" as="geometry" />
        </mxCell>
        <mxCell id="jm0wsWvHRC7rD9zgn_kI-22" value="кінець" style="ellipse;whiteSpace=wrap;html=1;rounded=1;sketch=0;fontSize=12;" parent="1" vertex="1">
          <mxGeometry x="67.68" y="500" width="95.35" height="30" as="geometry" />
        </mxCell>
        <mxCell id="jm0wsWvHRC7rD9zgn_kI-23" value="" style="endArrow=none;html=1;rounded=0;fontSize=12;" parent="1" edge="1">
          <mxGeometry width="50" height="50" relative="1" as="geometry">
            <mxPoint x="240" y="1010" as="sourcePoint" />
            <mxPoint x="240" as="targetPoint" />
          </mxGeometry>
        </mxCell>
        <mxCell id="jm0wsWvHRC7rD9zgn_kI-24" value="" style="endArrow=none;html=1;rounded=0;fontSize=12;" parent="1" edge="1">
          <mxGeometry width="50" height="50" relative="1" as="geometry">
            <mxPoint y="560" as="sourcePoint" />
            <mxPoint x="240" y="560" as="targetPoint" />
          </mxGeometry>
        </mxCell>
        <mxCell id="jm0wsWvHRC7rD9zgn_kI-25" value="&lt;font style=&quot;font-size: 24px&quot;&gt;&lt;span class=&quot;pl-k&quot; style=&quot;box-sizing: border-box ; font-family: , , &amp;#34;sf mono&amp;#34; , &amp;#34;menlo&amp;#34; , &amp;#34;consolas&amp;#34; , &amp;#34;liberation mono&amp;#34; , monospace ; background-color: rgb(255 , 255 , 255)&quot;&gt;class&lt;/span&gt;&lt;span style=&quot;color: rgb(36 , 41 , 47) ; font-family: , , &amp;#34;sf mono&amp;#34; , &amp;#34;menlo&amp;#34; , &amp;#34;consolas&amp;#34; , &amp;#34;liberation mono&amp;#34; , monospace ; background-color: rgb(255 , 255 , 255)&quot;&gt;&amp;nbsp;&lt;/span&gt;&lt;/font&gt;&lt;font color=&quot;#24292f&quot;&gt;&lt;span style=&quot;font-size: 24px ; background-color: rgb(255 , 255 , 255)&quot;&gt;Matrix&lt;/span&gt;&lt;/font&gt;" style="text;html=1;align=center;verticalAlign=middle;resizable=0;points=[];autosize=1;strokeColor=none;fillColor=none;" parent="1" vertex="1">
          <mxGeometry x="265" y="10" width="140" height="20" as="geometry" />
        </mxCell>
        <mxCell id="jm0wsWvHRC7rD9zgn_kI-26" value="" style="endArrow=none;html=1;rounded=0;" parent="1" edge="1">
          <mxGeometry width="50" height="50" relative="1" as="geometry">
            <mxPoint x="239.9999999999999" y="40" as="sourcePoint" />
            <mxPoint x="439.9999999999999" y="40" as="targetPoint" />
          </mxGeometry>
        </mxCell>
        <mxCell id="jm0wsWvHRC7rD9zgn_kI-27" value="" style="endArrow=none;html=1;rounded=0;" parent="1" edge="1">
          <mxGeometry width="50" height="50" relative="1" as="geometry">
            <mxPoint x="439.9999999999999" as="sourcePoint" />
            <mxPoint x="439.9999999999999" y="40" as="targetPoint" />
          </mxGeometry>
        </mxCell>
        <mxCell id="jm0wsWvHRC7rD9zgn_kI-29" value="&lt;span style=&quot;font-size: 24px&quot;&gt;private class Iterator&lt;/span&gt;" style="text;html=1;align=center;verticalAlign=middle;resizable=0;points=[];autosize=1;strokeColor=none;fillColor=none;" parent="1" vertex="1">
          <mxGeometry x="290" y="90" width="230" height="20" as="geometry" />
        </mxCell>
        <mxCell id="jm0wsWvHRC7rD9zgn_kI-38" value="" style="endArrow=none;html=1;rounded=0;fontSize=12;" parent="1" edge="1">
          <mxGeometry width="50" height="50" relative="1" as="geometry">
            <mxPoint x="280" y="80" as="sourcePoint" />
            <mxPoint x="280" y="120" as="targetPoint" />
          </mxGeometry>
        </mxCell>
        <mxCell id="jm0wsWvHRC7rD9zgn_kI-40" value="" style="endArrow=none;html=1;rounded=0;fontSize=12;" parent="1" edge="1">
          <mxGeometry width="50" height="50" relative="1" as="geometry">
            <mxPoint x="280" y="80" as="sourcePoint" />
            <mxPoint x="520" y="120" as="targetPoint" />
            <Array as="points">
              <mxPoint x="520" y="80" />
            </Array>
          </mxGeometry>
        </mxCell>
        <mxCell id="jm0wsWvHRC7rD9zgn_kI-42" value="" style="endArrow=none;html=1;rounded=0;fontSize=12;" parent="1" edge="1">
          <mxGeometry width="50" height="50" relative="1" as="geometry">
            <mxPoint x="240" y="120" as="sourcePoint" />
            <mxPoint x="820" y="120" as="targetPoint" />
          </mxGeometry>
        </mxCell>
        <mxCell id="jm0wsWvHRC7rD9zgn_kI-45" style="edgeStyle=orthogonalEdgeStyle;rounded=0;orthogonalLoop=1;jettySize=auto;html=1;exitX=0.5;exitY=1;exitDx=0;exitDy=0;fontSize=12;" parent="1" source="jm0wsWvHRC7rD9zgn_kI-44" target="jm0wsWvHRC7rD9zgn_kI-46" edge="1">
          <mxGeometry relative="1" as="geometry">
            <mxPoint x="590.3571428571429" y="290" as="targetPoint" />
          </mxGeometry>
        </mxCell>
        <mxCell id="jm0wsWvHRC7rD9zgn_kI-44" value="Початок" style="ellipse;whiteSpace=wrap;html=1;fontSize=16;strokeWidth=1;rounded=1;sketch=0;" parent="1" vertex="1">
          <mxGeometry x="547.5000000000002" y="209.9999999999999" width="85" height="40" as="geometry" />
        </mxCell>
        <mxCell id="jm0wsWvHRC7rD9zgn_kI-46" value="&lt;div&gt;private int[,] matrix;&lt;/div&gt;&lt;div&gt;&lt;span&gt;private int M;&lt;/span&gt;&lt;/div&gt;&lt;div&gt;private int N;&lt;/div&gt;&lt;div&gt;private int row;&lt;/div&gt;&lt;div&gt;&amp;nbsp;private int column;&lt;/div&gt;&lt;div&gt;private int w;&lt;/div&gt;" style="rounded=1;whiteSpace=wrap;html=1;sketch=0;fontSize=13;" parent="1" vertex="1">
          <mxGeometry x="500" y="300" width="180" height="130" as="geometry" />
        </mxCell>
        <mxCell id="jm0wsWvHRC7rD9zgn_kI-49" style="edgeStyle=orthogonalEdgeStyle;rounded=0;orthogonalLoop=1;jettySize=auto;html=1;fontSize=12;" parent="1" source="jm0wsWvHRC7rD9zgn_kI-46" target="jm0wsWvHRC7rD9zgn_kI-50" edge="1">
          <mxGeometry relative="1" as="geometry">
            <mxPoint x="590.0029411764706" y="470" as="targetPoint" />
            <mxPoint x="590.0029411764706" y="430.0000000000001" as="sourcePoint" />
          </mxGeometry>
        </mxCell>
        <mxCell id="jm0wsWvHRC7rD9zgn_kI-50" value="кінець" style="ellipse;whiteSpace=wrap;html=1;rounded=1;sketch=0;fontSize=12;" parent="1" vertex="1">
          <mxGeometry x="542.3299999999999" y="470" width="95.35" height="30" as="geometry" />
        </mxCell>
        <mxCell id="jm0wsWvHRC7rD9zgn_kI-51" value="&lt;font style=&quot;font-size: 13px&quot;&gt;public Iterator(int[,] matrix, int M, int N, int row, int column)&lt;/font&gt;" style="text;html=1;align=center;verticalAlign=middle;resizable=0;points=[];autosize=1;strokeColor=none;fillColor=none;" parent="1" vertex="1">
          <mxGeometry x="477" y="130.00000000000003" width="350" height="20" as="geometry" />
        </mxCell>
        <mxCell id="jm0wsWvHRC7rD9zgn_kI-52" value="" style="endArrow=none;html=1;rounded=0;" parent="1" edge="1">
          <mxGeometry width="50" height="50" relative="1" as="geometry">
            <mxPoint x="480" y="159" as="sourcePoint" />
            <mxPoint x="820" y="159" as="targetPoint" />
          </mxGeometry>
        </mxCell>
        <mxCell id="jm0wsWvHRC7rD9zgn_kI-53" value="" style="endArrow=none;html=1;rounded=0;" parent="1" edge="1">
          <mxGeometry width="50" height="50" relative="1" as="geometry">
            <mxPoint x="820" y="119" as="sourcePoint" />
            <mxPoint x="820" y="159" as="targetPoint" />
          </mxGeometry>
        </mxCell>
        <mxCell id="jm0wsWvHRC7rD9zgn_kI-54" value="" style="endArrow=none;html=1;rounded=0;fontSize=12;" parent="1" edge="1">
          <mxGeometry width="50" height="50" relative="1" as="geometry">
            <mxPoint x="480" y="480" as="sourcePoint" />
            <mxPoint x="480" y="120" as="targetPoint" />
          </mxGeometry>
        </mxCell>
        <mxCell id="jm0wsWvHRC7rD9zgn_kI-55" value="" style="endArrow=none;html=1;rounded=0;fontSize=12;" parent="1" edge="1">
          <mxGeometry width="50" height="50" relative="1" as="geometry">
            <mxPoint x="240" y="480" as="sourcePoint" />
            <mxPoint x="480" y="480" as="targetPoint" />
          </mxGeometry>
        </mxCell>
        <mxCell id="pkDNeRE30fQ9Vf2fr36v-1" value="public int get()" style="text;html=1;align=center;verticalAlign=middle;resizable=0;points=[];autosize=1;strokeColor=none;fillColor=none;fontSize=13;" vertex="1" parent="1">
          <mxGeometry x="490" y="180" width="100" height="20" as="geometry" />
        </mxCell>
        <mxCell id="pkDNeRE30fQ9Vf2fr36v-2" style="edgeStyle=orthogonalEdgeStyle;rounded=0;orthogonalLoop=1;jettySize=auto;html=1;exitX=0.5;exitY=1;exitDx=0;exitDy=0;fontSize=12;" edge="1" source="pkDNeRE30fQ9Vf2fr36v-3" target="pkDNeRE30fQ9Vf2fr36v-4" parent="1">
          <mxGeometry relative="1" as="geometry">
            <mxPoint x="355.3571428571429" y="210" as="targetPoint" />
          </mxGeometry>
        </mxCell>
        <mxCell id="pkDNeRE30fQ9Vf2fr36v-3" value="Початок" style="ellipse;whiteSpace=wrap;html=1;fontSize=16;strokeWidth=1;rounded=1;sketch=0;" vertex="1" parent="1">
          <mxGeometry x="312.5000000000002" y="129.9999999999999" width="85" height="40" as="geometry" />
        </mxCell>
        <mxCell id="pkDNeRE30fQ9Vf2fr36v-4" value="&lt;div&gt;private int[,] matrix;&lt;/div&gt;&lt;div&gt;&lt;span&gt;private int M;&lt;/span&gt;&lt;/div&gt;&lt;div&gt;private int N;&lt;/div&gt;&lt;div&gt;private int row;&lt;/div&gt;&lt;div&gt;&amp;nbsp;private int column;&lt;/div&gt;&lt;div&gt;private int w;&lt;/div&gt;" style="shape=parallelogram;perimeter=parallelogramPerimeter;whiteSpace=wrap;html=1;fixedSize=1;rounded=1;sketch=0;fontSize=12;" vertex="1" parent="1">
          <mxGeometry x="265" y="220" width="180" height="130" as="geometry" />
        </mxCell>
        <mxCell id="pkDNeRE30fQ9Vf2fr36v-5" style="edgeStyle=orthogonalEdgeStyle;rounded=0;orthogonalLoop=1;jettySize=auto;html=1;fontSize=12;" edge="1" source="pkDNeRE30fQ9Vf2fr36v-4" target="pkDNeRE30fQ9Vf2fr36v-6" parent="1">
          <mxGeometry relative="1" as="geometry">
            <mxPoint x="355.0029411764706" y="390" as="targetPoint" />
            <mxPoint x="355.0029411764706" y="350.0000000000001" as="sourcePoint" />
          </mxGeometry>
        </mxCell>
        <mxCell id="pkDNeRE30fQ9Vf2fr36v-6" value="кінець" style="ellipse;whiteSpace=wrap;html=1;rounded=1;sketch=0;fontSize=12;" vertex="1" parent="1">
          <mxGeometry x="307.3299999999999" y="390" width="95.35" height="30" as="geometry" />
        </mxCell>
        <mxCell id="pkDNeRE30fQ9Vf2fr36v-7" value="" style="rounded=1;whiteSpace=wrap;html=1;sketch=0;fontSize=13;" vertex="1" parent="1">
          <mxGeometry x="730" y="410" width="120" height="60" as="geometry" />
        </mxCell>
      </root>
    </mxGraphModel>
  </diagram>
</mxfile>
